# xmcd
#
# Track frame offsets:
#	150
#	14084
#	28867
#	43121
#	54310
#	67980
#	80966
#	97394
#	113305
#	128479
#	142343
#	157363
#	169305
#	184046
#	197059
#	223675
#
# Disc length: 3283 seconds
#
# Revision: 0
# Processed by: cddbd v1.4PL0 Copyright (c) Steve Scherf et al.
# Submitted via: dBpowerAMP V4.0
#
DISCID=f50cd110
DTITLE=Megan Sheehan - Hey Good Lookin'-Songs Of Hank Williams
DYEAR=1900
DGENRE=Country
TTITLE0=I'm So Lonesome I Could Cry
TTITLE1=Hey Good Lookin'
TTITLE2=Love Sick Blues
TTITLE3=Why Don't You Love Me
TTITLE4=Weary Blues From Waitin'
TTITLE5=Cold Cold Heart
TTITLE6=Jambalaya
TTITLE7=Take These Chains From My Heart
TTITLE8=Kaw-Liga
TTITLE9=I Can't Help It
TTITLE10=You Win Again
TTITLE11=Settin' The Woods On Fire
TTITLE12=Your Cheatin' Heart
TTITLE13=I Won't Be Home No More
TTITLE14=I Saw The Light
TTITLE15=DATA
EXTD=I want to correct some spelling. \n"Ney" should be "Hey" and "Hanh" should  be \n"Hank". 
EXTT0=
EXTT1=
EXTT2=
EXTT3=
EXTT4=
EXTT5=
EXTT6=
EXTT7=
EXTT8=
EXTT9=
EXTT10=
EXTT11=
EXTT12=
EXTT13=
EXTT14=
EXTT15=
PLAYORDER=
